<svg fill="none" height="15" viewBox="0 0 14 15" width="14" xmlns="http://www.w3.org/2000/svg" xmlns:xlink="http://www.w3.org/1999/xlink"><clipPath id="a"><path d="m0 .942871h14v14h-14z"/></clipPath><g clip-path="url(#a)"><path d="m13.5 7.44287c0-.26522-.1054-.51957-.2929-.70711-.1875-.18753-.4419-.29289-.7071-.29289h-4v-4c0-.26522-.10536-.51957-.29289-.70711-.18754-.18753-.44189-.29289-.70711-.29289h-1c-.26522 0-.51957.10536-.70711.29289-.18753.18754-.29289.44189-.29289.70711v4h-4c-.26522 0-.51957.10536-.707107.29289-.187536.18754-.292893.44189-.292893.70711v1c0 .26522.105357.51957.292893.70711.187537.18753.441887.29289.707107.29289h4v4.00003c0 .2652.10536.5195.29289.7071.18754.1875.44189.2929.70711.2929h1c.26522 0 .51957-.1054.70711-.2929.18753-.1876.29289-.4419.29289-.7071v-4.00003h4c.2652 0 .5196-.10536.7071-.29289.1875-.18754.2929-.44189.2929-.70711z" stroke="#000001" stroke-linecap="round" stroke-linejoin="round"/></g></svg>